ISO-10303-21;
HEADER;
/* Generated by software containing ST-Developer
 * from STEP Tools, Inc. (www.steptools.com) 
 */

FILE_DESCRIPTION(
/* description */ (''),
/* implementation_level */ '2;1');

FILE_NAME(
/* name */ '',
/* time_stamp */ '2026-10-07T11:06:53+09:00',
/* author */ (''),
/* organization */ (''),
/* preprocessor_version */ 'ST-DEVELOPER v20.2',
/* originating_system */ 'Autodesk Translation Framework v15.15.0.0',
/* authorisation */ '');

FILE_SCHEMA (('AUTOMOTIVE_DESIGN { 1 0 10303 214 3 1 1 }'));
ENDSEC;

DATA;
#10=MECHANICAL_DESIGN_GEOMETRIC_PRESENTATION_REPRESENTATION('',(#13),#657);
#11=SHAPE_REPRESENTATION_RELATIONSHIP('SRR','None',#664,#12);
#12=ADVANCED_BREP_SHAPE_REPRESENTATION('',(#14),#656);
#13=STYLED_ITEM('',(#673),#14);
#14=MANIFOLD_SOLID_BREP('\X2\30DC30C730A3\X0\1',#405);
#15=FACE_BOUND('',#58,.T.);
#16=CIRCLE('',#432,18.5);
#17=CIRCLE('',#433,18.5);
#18=CYLINDRICAL_SURFACE('',#431,18.5);
#19=FACE_OUTER_BOUND('',#40,.T.);
#20=FACE_OUTER_BOUND('',#41,.T.);
#21=FACE_OUTER_BOUND('',#42,.T.);
#22=FACE_OUTER_BOUND('',#43,.T.);
#23=FACE_OUTER_BOUND('',#44,.T.);
#24=FACE_OUTER_BOUND('',#45,.T.);
#25=FACE_OUTER_BOUND('',#46,.T.);
#26=FACE_OUTER_BOUND('',#47,.T.);
#27=FACE_OUTER_BOUND('',#48,.T.);
#28=FACE_OUTER_BOUND('',#49,.T.);
#29=FACE_OUTER_BOUND('',#50,.T.);
#30=FACE_OUTER_BOUND('',#51,.T.);
#31=FACE_OUTER_BOUND('',#52,.T.);
#32=FACE_OUTER_BOUND('',#53,.T.);
#33=FACE_OUTER_BOUND('',#54,.T.);
#34=FACE_OUTER_BOUND('',#55,.T.);
#35=FACE_OUTER_BOUND('',#56,.T.);
#36=FACE_OUTER_BOUND('',#57,.T.);
#37=FACE_OUTER_BOUND('',#59,.T.);
#38=FACE_OUTER_BOUND('',#60,.T.);
#39=FACE_OUTER_BOUND('',#61,.T.);
#40=EDGE_LOOP('',(#256,#257,#258,#259));
#41=EDGE_LOOP('',(#260,#261,#262,#263));
#42=EDGE_LOOP('',(#264,#265,#266,#267,#268,#269,#270,#271));
#43=EDGE_LOOP('',(#272,#273,#274,#275,#276,#277,#278,#279));
#44=EDGE_LOOP('',(#280,#281,#282,#283,#284,#285));
#45=EDGE_LOOP('',(#286,#287,#288,#289));
#46=EDGE_LOOP('',(#290,#291,#292,#293));
#47=EDGE_LOOP('',(#294,#295,#296,#297,#298,#299,#300,#301,#302,#303,#304,
#305));
#48=EDGE_LOOP('',(#306,#307,#308,#309));
#49=EDGE_LOOP('',(#310,#311,#312,#313));
#50=EDGE_LOOP('',(#314,#315,#316,#317));
#51=EDGE_LOOP('',(#318,#319,#320,#321));
#52=EDGE_LOOP('',(#322,#323,#324,#325));
#53=EDGE_LOOP('',(#326,#327));
#54=EDGE_LOOP('',(#328,#329));
#55=EDGE_LOOP('',(#330,#331,#332,#333));
#56=EDGE_LOOP('',(#334,#335,#336,#337));
#57=EDGE_LOOP('',(#338,#339,#340,#341,#342,#343,#344,#345));
#58=EDGE_LOOP('',(#346,#347,#348,#349));
#59=EDGE_LOOP('',(#350,#351,#352,#353));
#60=EDGE_LOOP('',(#354,#355,#356,#357));
#61=EDGE_LOOP('',(#358,#359,#360,#361,#362,#363));
#62=LINE('',#546,#114);
#63=LINE('',#548,#115);
#64=LINE('',#550,#116);
#65=LINE('',#551,#117);
#66=LINE('',#555,#118);
#67=LINE('',#557,#119);
#68=LINE('',#559,#120);
#69=LINE('',#560,#121);
#70=LINE('',#563,#122);
#71=LINE('',#565,#123);
#72=LINE('',#567,#124);
#73=LINE('',#569,#125);
#74=LINE('',#570,#126);
#75=LINE('',#571,#127);
#76=LINE('',#574,#128);
#77=LINE('',#576,#129);
#78=LINE('',#578,#130);
#79=LINE('',#580,#131);
#80=LINE('',#581,#132);
#81=LINE('',#584,#133);
#82=LINE('',#586,#134);
#83=LINE('',#588,#135);
#84=LINE('',#589,#136);
#85=LINE('',#591,#137);
#86=LINE('',#594,#138);
#87=LINE('',#595,#139);
#88=LINE('',#599,#140);
#89=LINE('',#601,#141);
#90=LINE('',#602,#142);
#91=LINE('',#603,#143);
#92=LINE('',#605,#144);
#93=LINE('',#607,#145);
#94=LINE('',#609,#146);
#95=LINE('',#611,#147);
#96=LINE('',#613,#148);
#97=LINE('',#614,#149);
#98=LINE('',#617,#150);
#99=LINE('',#619,#151);
#100=LINE('',#620,#152);
#101=LINE('',#623,#153);
#102=LINE('',#624,#154);
#103=LINE('',#627,#155);
#104=LINE('',#628,#156);
#105=LINE('',#630,#157);
#106=LINE('',#636,#158);
#107=LINE('',#639,#159);
#108=LINE('',#641,#160);
#109=LINE('',#643,#161);
#110=LINE('',#645,#162);
#111=LINE('',#647,#163);
#112=LINE('',#648,#164);
#113=LINE('',#651,#165);
#114=VECTOR('',#446,10.);
#115=VECTOR('',#447,10.);
#116=VECTOR('',#448,10.);
#117=VECTOR('',#449,10.);
#118=VECTOR('',#452,10.);
#119=VECTOR('',#453,10.);
#120=VECTOR('',#454,10.);
#121=VECTOR('',#455,10.);
#122=VECTOR('',#458,10.);
#123=VECTOR('',#459,10.);
#124=VECTOR('',#460,10.);
#125=VECTOR('',#461,10.);
#126=VECTOR('',#462,10.);
#127=VECTOR('',#463,10.);
#128=VECTOR('',#466,10.);
#129=VECTOR('',#467,10.);
#130=VECTOR('',#468,10.);
#131=VECTOR('',#469,10.);
#132=VECTOR('',#470,10.);
#133=VECTOR('',#473,10.);
#134=VECTOR('',#474,10.);
#135=VECTOR('',#475,10.);
#136=VECTOR('',#476,10.);
#137=VECTOR('',#479,10.);
#138=VECTOR('',#482,10.);
#139=VECTOR('',#483,10.);
#140=VECTOR('',#486,10.);
#141=VECTOR('',#487,10.);
#142=VECTOR('',#488,10.);
#143=VECTOR('',#489,10.);
#144=VECTOR('',#490,10.);
#145=VECTOR('',#491,10.);
#146=VECTOR('',#492,10.);
#147=VECTOR('',#493,10.);
#148=VECTOR('',#494,10.);
#149=VECTOR('',#495,10.);
#150=VECTOR('',#498,10.);
#151=VECTOR('',#499,10.);
#152=VECTOR('',#500,10.);
#153=VECTOR('',#503,10.);
#154=VECTOR('',#504,10.);
#155=VECTOR('',#507,10.);
#156=VECTOR('',#508,10.);
#157=VECTOR('',#511,10.);
#158=VECTOR('',#516,10.);
#159=VECTOR('',#519,10.);
#160=VECTOR('',#522,10.);
#161=VECTOR('',#525,10.);
#162=VECTOR('',#528,10.);
#163=VECTOR('',#531,10.);
#164=VECTOR('',#532,10.);
#165=VECTOR('',#537,10.);
#166=VERTEX_POINT('',#544);
#167=VERTEX_POINT('',#545);
#168=VERTEX_POINT('',#547);
#169=VERTEX_POINT('',#549);
#170=VERTEX_POINT('',#553);
#171=VERTEX_POINT('',#554);
#172=VERTEX_POINT('',#556);
#173=VERTEX_POINT('',#558);
#174=VERTEX_POINT('',#562);
#175=VERTEX_POINT('',#564);
#176=VERTEX_POINT('',#566);
#177=VERTEX_POINT('',#568);
#178=VERTEX_POINT('',#573);
#179=VERTEX_POINT('',#575);
#180=VERTEX_POINT('',#577);
#181=VERTEX_POINT('',#579);
#182=VERTEX_POINT('',#583);
#183=VERTEX_POINT('',#585);
#184=VERTEX_POINT('',#587);
#185=VERTEX_POINT('',#593);
#186=VERTEX_POINT('',#597);
#187=VERTEX_POINT('',#598);
#188=VERTEX_POINT('',#600);
#189=VERTEX_POINT('',#604);
#190=VERTEX_POINT('',#606);
#191=VERTEX_POINT('',#608);
#192=VERTEX_POINT('',#610);
#193=VERTEX_POINT('',#612);
#194=VERTEX_POINT('',#616);
#195=VERTEX_POINT('',#618);
#196=VERTEX_POINT('',#622);
#197=VERTEX_POINT('',#626);
#198=VERTEX_POINT('',#632);
#199=VERTEX_POINT('',#633);
#200=VERTEX_POINT('',#635);
#201=VERTEX_POINT('',#637);
#202=EDGE_CURVE('',#166,#167,#62,.T.);
#203=EDGE_CURVE('',#166,#168,#63,.T.);
#204=EDGE_CURVE('',#169,#168,#64,.T.);
#205=EDGE_CURVE('',#167,#169,#65,.T.);
#206=EDGE_CURVE('',#170,#171,#66,.T.);
#207=EDGE_CURVE('',#172,#170,#67,.T.);
#208=EDGE_CURVE('',#173,#172,#68,.T.);
#209=EDGE_CURVE('',#171,#173,#69,.T.);
#210=EDGE_CURVE('',#174,#166,#70,.T.);
#211=EDGE_CURVE('',#174,#175,#71,.T.);
#212=EDGE_CURVE('',#176,#175,#72,.T.);
#213=EDGE_CURVE('',#177,#176,#73,.T.);
#214=EDGE_CURVE('',#171,#177,#74,.T.);
#215=EDGE_CURVE('',#168,#173,#75,.T.);
#216=EDGE_CURVE('',#178,#172,#76,.T.);
#217=EDGE_CURVE('',#179,#178,#77,.T.);
#218=EDGE_CURVE('',#180,#179,#78,.T.);
#219=EDGE_CURVE('',#181,#180,#79,.T.);
#220=EDGE_CURVE('',#169,#181,#80,.T.);
#221=EDGE_CURVE('',#177,#182,#81,.T.);
#222=EDGE_CURVE('',#182,#183,#82,.T.);
#223=EDGE_CURVE('',#183,#184,#83,.T.);
#224=EDGE_CURVE('',#184,#170,#84,.T.);
#225=EDGE_CURVE('',#178,#184,#85,.T.);
#226=EDGE_CURVE('',#181,#185,#86,.T.);
#227=EDGE_CURVE('',#167,#185,#87,.T.);
#228=EDGE_CURVE('',#186,#187,#88,.T.);
#229=EDGE_CURVE('',#188,#186,#89,.T.);
#230=EDGE_CURVE('',#180,#188,#90,.T.);
#231=EDGE_CURVE('',#179,#183,#91,.T.);
#232=EDGE_CURVE('',#182,#189,#92,.T.);
#233=EDGE_CURVE('',#189,#190,#93,.T.);
#234=EDGE_CURVE('',#190,#191,#94,.T.);
#235=EDGE_CURVE('',#191,#192,#95,.T.);
#236=EDGE_CURVE('',#192,#193,#96,.T.);
#237=EDGE_CURVE('',#193,#187,#97,.T.);
#238=EDGE_CURVE('',#190,#194,#98,.T.);
#239=EDGE_CURVE('',#195,#194,#99,.T.);
#240=EDGE_CURVE('',#191,#195,#100,.T.);
#241=EDGE_CURVE('',#196,#195,#101,.T.);
#242=EDGE_CURVE('',#192,#196,#102,.T.);
#243=EDGE_CURVE('',#197,#196,#103,.T.);
#244=EDGE_CURVE('',#193,#197,#104,.T.);
#245=EDGE_CURVE('',#194,#197,#105,.T.);
#246=EDGE_CURVE('',#198,#199,#16,.T.);
#247=EDGE_CURVE('',#200,#199,#106,.T.);
#248=EDGE_CURVE('',#200,#201,#17,.T.);
#249=EDGE_CURVE('',#198,#201,#107,.T.);
#250=EDGE_CURVE('',#199,#198,#108,.T.);
#251=EDGE_CURVE('',#201,#200,#109,.T.);
#252=EDGE_CURVE('',#189,#176,#110,.T.);
#253=EDGE_CURVE('',#186,#174,#111,.T.);
#254=EDGE_CURVE('',#175,#187,#112,.T.);
#255=EDGE_CURVE('',#185,#188,#113,.T.);
#256=ORIENTED_EDGE('',*,*,#202,.F.);
#257=ORIENTED_EDGE('',*,*,#203,.T.);
#258=ORIENTED_EDGE('',*,*,#204,.F.);
#259=ORIENTED_EDGE('',*,*,#205,.F.);
#260=ORIENTED_EDGE('',*,*,#206,.F.);
#261=ORIENTED_EDGE('',*,*,#207,.F.);
#262=ORIENTED_EDGE('',*,*,#208,.F.);
#263=ORIENTED_EDGE('',*,*,#209,.F.);
#264=ORIENTED_EDGE('',*,*,#210,.F.);
#265=ORIENTED_EDGE('',*,*,#211,.T.);
#266=ORIENTED_EDGE('',*,*,#212,.F.);
#267=ORIENTED_EDGE('',*,*,#213,.F.);
#268=ORIENTED_EDGE('',*,*,#214,.F.);
#269=ORIENTED_EDGE('',*,*,#209,.T.);
#270=ORIENTED_EDGE('',*,*,#215,.F.);
#271=ORIENTED_EDGE('',*,*,#203,.F.);
#272=ORIENTED_EDGE('',*,*,#204,.T.);
#273=ORIENTED_EDGE('',*,*,#215,.T.);
#274=ORIENTED_EDGE('',*,*,#208,.T.);
#275=ORIENTED_EDGE('',*,*,#216,.F.);
#276=ORIENTED_EDGE('',*,*,#217,.F.);
#277=ORIENTED_EDGE('',*,*,#218,.F.);
#278=ORIENTED_EDGE('',*,*,#219,.F.);
#279=ORIENTED_EDGE('',*,*,#220,.F.);
#280=ORIENTED_EDGE('',*,*,#206,.T.);
#281=ORIENTED_EDGE('',*,*,#214,.T.);
#282=ORIENTED_EDGE('',*,*,#221,.T.);
#283=ORIENTED_EDGE('',*,*,#222,.T.);
#284=ORIENTED_EDGE('',*,*,#223,.T.);
#285=ORIENTED_EDGE('',*,*,#224,.T.);
#286=ORIENTED_EDGE('',*,*,#207,.T.);
#287=ORIENTED_EDGE('',*,*,#224,.F.);
#288=ORIENTED_EDGE('',*,*,#225,.F.);
#289=ORIENTED_EDGE('',*,*,#216,.T.);
#290=ORIENTED_EDGE('',*,*,#205,.T.);
#291=ORIENTED_EDGE('',*,*,#220,.T.);
#292=ORIENTED_EDGE('',*,*,#226,.T.);
#293=ORIENTED_EDGE('',*,*,#227,.F.);
#294=ORIENTED_EDGE('',*,*,#228,.F.);
#295=ORIENTED_EDGE('',*,*,#229,.F.);
#296=ORIENTED_EDGE('',*,*,#230,.F.);
#297=ORIENTED_EDGE('',*,*,#218,.T.);
#298=ORIENTED_EDGE('',*,*,#231,.T.);
#299=ORIENTED_EDGE('',*,*,#222,.F.);
#300=ORIENTED_EDGE('',*,*,#232,.T.);
#301=ORIENTED_EDGE('',*,*,#233,.T.);
#302=ORIENTED_EDGE('',*,*,#234,.T.);
#303=ORIENTED_EDGE('',*,*,#235,.T.);
#304=ORIENTED_EDGE('',*,*,#236,.T.);
#305=ORIENTED_EDGE('',*,*,#237,.T.);
#306=ORIENTED_EDGE('',*,*,#234,.F.);
#307=ORIENTED_EDGE('',*,*,#238,.T.);
#308=ORIENTED_EDGE('',*,*,#239,.F.);
#309=ORIENTED_EDGE('',*,*,#240,.F.);
#310=ORIENTED_EDGE('',*,*,#235,.F.);
#311=ORIENTED_EDGE('',*,*,#240,.T.);
#312=ORIENTED_EDGE('',*,*,#241,.F.);
#313=ORIENTED_EDGE('',*,*,#242,.F.);
#314=ORIENTED_EDGE('',*,*,#236,.F.);
#315=ORIENTED_EDGE('',*,*,#242,.T.);
#316=ORIENTED_EDGE('',*,*,#243,.F.);
#317=ORIENTED_EDGE('',*,*,#244,.F.);
#318=ORIENTED_EDGE('',*,*,#245,.T.);
#319=ORIENTED_EDGE('',*,*,#243,.T.);
#320=ORIENTED_EDGE('',*,*,#241,.T.);
#321=ORIENTED_EDGE('',*,*,#239,.T.);
#322=ORIENTED_EDGE('',*,*,#246,.T.);
#323=ORIENTED_EDGE('',*,*,#247,.F.);
#324=ORIENTED_EDGE('',*,*,#248,.T.);
#325=ORIENTED_EDGE('',*,*,#249,.F.);
#326=ORIENTED_EDGE('',*,*,#250,.F.);
#327=ORIENTED_EDGE('',*,*,#246,.F.);
#328=ORIENTED_EDGE('',*,*,#251,.F.);
#329=ORIENTED_EDGE('',*,*,#248,.F.);
#330=ORIENTED_EDGE('',*,*,#221,.F.);
#331=ORIENTED_EDGE('',*,*,#213,.T.);
#332=ORIENTED_EDGE('',*,*,#252,.F.);
#333=ORIENTED_EDGE('',*,*,#232,.F.);
#334=ORIENTED_EDGE('',*,*,#253,.F.);
#335=ORIENTED_EDGE('',*,*,#228,.T.);
#336=ORIENTED_EDGE('',*,*,#254,.F.);
#337=ORIENTED_EDGE('',*,*,#211,.F.);
#338=ORIENTED_EDGE('',*,*,#254,.T.);
#339=ORIENTED_EDGE('',*,*,#237,.F.);
#340=ORIENTED_EDGE('',*,*,#244,.T.);
#341=ORIENTED_EDGE('',*,*,#245,.F.);
#342=ORIENTED_EDGE('',*,*,#238,.F.);
#343=ORIENTED_EDGE('',*,*,#233,.F.);
#344=ORIENTED_EDGE('',*,*,#252,.T.);
#345=ORIENTED_EDGE('',*,*,#212,.T.);
#346=ORIENTED_EDGE('',*,*,#247,.T.);
#347=ORIENTED_EDGE('',*,*,#250,.T.);
#348=ORIENTED_EDGE('',*,*,#249,.T.);
#349=ORIENTED_EDGE('',*,*,#251,.T.);
#350=ORIENTED_EDGE('',*,*,#219,.T.);
#351=ORIENTED_EDGE('',*,*,#230,.T.);
#352=ORIENTED_EDGE('',*,*,#255,.F.);
#353=ORIENTED_EDGE('',*,*,#226,.F.);
#354=ORIENTED_EDGE('',*,*,#217,.T.);
#355=ORIENTED_EDGE('',*,*,#225,.T.);
#356=ORIENTED_EDGE('',*,*,#223,.F.);
#357=ORIENTED_EDGE('',*,*,#231,.F.);
#358=ORIENTED_EDGE('',*,*,#202,.T.);
#359=ORIENTED_EDGE('',*,*,#227,.T.);
#360=ORIENTED_EDGE('',*,*,#255,.T.);
#361=ORIENTED_EDGE('',*,*,#229,.T.);
#362=ORIENTED_EDGE('',*,*,#253,.T.);
#363=ORIENTED_EDGE('',*,*,#210,.T.);
#364=PLANE('',#419);
#365=PLANE('',#420);
#366=PLANE('',#421);
#367=PLANE('',#422);
#368=PLANE('',#423);
#369=PLANE('',#424);
#370=PLANE('',#425);
#371=PLANE('',#426);
#372=PLANE('',#427);
#373=PLANE('',#428);
#374=PLANE('',#429);
#375=PLANE('',#430);
#376=PLANE('',#434);
#377=PLANE('',#435);
#378=PLANE('',#436);
#379=PLANE('',#437);
#380=PLANE('',#438);
#381=PLANE('',#439);
#382=PLANE('',#440);
#383=PLANE('',#441);
#384=ADVANCED_FACE('',(#19),#364,.F.);
#385=ADVANCED_FACE('',(#20),#365,.F.);
#386=ADVANCED_FACE('',(#21),#366,.T.);
#387=ADVANCED_FACE('',(#22),#367,.F.);
#388=ADVANCED_FACE('',(#23),#368,.T.);
#389=ADVANCED_FACE('',(#24),#369,.T.);
#390=ADVANCED_FACE('',(#25),#370,.T.);
#391=ADVANCED_FACE('',(#26),#371,.F.);
#392=ADVANCED_FACE('',(#27),#372,.T.);
#393=ADVANCED_FACE('',(#28),#373,.T.);
#394=ADVANCED_FACE('',(#29),#374,.T.);
#395=ADVANCED_FACE('',(#30),#375,.T.);
#396=ADVANCED_FACE('',(#31),#18,.F.);
#397=ADVANCED_FACE('',(#32),#376,.F.);
#398=ADVANCED_FACE('',(#33),#377,.T.);
#399=ADVANCED_FACE('',(#34),#378,.T.);
#400=ADVANCED_FACE('',(#35),#379,.T.);
#401=ADVANCED_FACE('',(#36,#15),#380,.T.);
#402=ADVANCED_FACE('',(#37),#381,.T.);
#403=ADVANCED_FACE('',(#38),#382,.T.);
#404=ADVANCED_FACE('',(#39),#383,.T.);
#405=CLOSED_SHELL('',(#384,#385,#386,#387,#388,#389,#390,#391,#392,#393,
#394,#395,#396,#397,#398,#399,#400,#401,#402,#403,#404));
#406=DERIVED_UNIT_ELEMENT(#408,1.);
#407=DERIVED_UNIT_ELEMENT(#659,-3.);
#408=(
MASS_UNIT()
NAMED_UNIT(*)
SI_UNIT(.KILO.,.GRAM.)
);
#409=DERIVED_UNIT((#406,#407));
#410=MEASURE_REPRESENTATION_ITEM('density measure',
POSITIVE_RATIO_MEASURE(7850.),#409);
#411=PROPERTY_DEFINITION_REPRESENTATION(#416,#413);
#412=PROPERTY_DEFINITION_REPRESENTATION(#417,#414);
#413=REPRESENTATION('material name',(#415),#656);
#414=REPRESENTATION('density',(#410),#656);
#415=DESCRIPTIVE_REPRESENTATION_ITEM('\X2\92FC\X0\','\X2\92FC\X0\');
#416=PROPERTY_DEFINITION('material property','material name',#666);
#417=PROPERTY_DEFINITION('material property','density of part',#666);
#418=AXIS2_PLACEMENT_3D('',#542,#442,#443);
#419=AXIS2_PLACEMENT_3D('',#543,#444,#445);
#420=AXIS2_PLACEMENT_3D('',#552,#450,#451);
#421=AXIS2_PLACEMENT_3D('',#561,#456,#457);
#422=AXIS2_PLACEMENT_3D('',#572,#464,#465);
#423=AXIS2_PLACEMENT_3D('',#582,#471,#472);
#424=AXIS2_PLACEMENT_3D('',#590,#477,#478);
#425=AXIS2_PLACEMENT_3D('',#592,#480,#481);
#426=AXIS2_PLACEMENT_3D('',#596,#484,#485);
#427=AXIS2_PLACEMENT_3D('',#615,#496,#497);
#428=AXIS2_PLACEMENT_3D('',#621,#501,#502);
#429=AXIS2_PLACEMENT_3D('',#625,#505,#506);
#430=AXIS2_PLACEMENT_3D('',#629,#509,#510);
#431=AXIS2_PLACEMENT_3D('',#631,#512,#513);
#432=AXIS2_PLACEMENT_3D('',#634,#514,#515);
#433=AXIS2_PLACEMENT_3D('',#638,#517,#518);
#434=AXIS2_PLACEMENT_3D('',#640,#520,#521);
#435=AXIS2_PLACEMENT_3D('',#642,#523,#524);
#436=AXIS2_PLACEMENT_3D('',#644,#526,#527);
#437=AXIS2_PLACEMENT_3D('',#646,#529,#530);
#438=AXIS2_PLACEMENT_3D('',#649,#533,#534);
#439=AXIS2_PLACEMENT_3D('',#650,#535,#536);
#440=AXIS2_PLACEMENT_3D('',#652,#538,#539);
#441=AXIS2_PLACEMENT_3D('',#653,#540,#541);
#442=DIRECTION('axis',(0.,0.,1.));
#443=DIRECTION('refdir',(1.,0.,0.));
#444=DIRECTION('center_axis',(1.,-6.12323399573677E-17,0.));
#445=DIRECTION('ref_axis',(-6.12323399573677E-17,-1.,-3.74939945665464E-33));
#446=DIRECTION('',(-6.12323399573677E-17,-1.,0.));
#447=DIRECTION('',(0.,0.,-1.));
#448=DIRECTION('',(6.12323399573677E-17,1.,0.));
#449=DIRECTION('',(0.,0.,-1.));
#450=DIRECTION('center_axis',(-1.,6.12323399573677E-17,0.));
#451=DIRECTION('ref_axis',(6.12323399573677E-17,1.,3.74939945665464E-33));
#452=DIRECTION('',(6.12323399573677E-17,1.,0.));
#453=DIRECTION('',(0.,0.,1.));
#454=DIRECTION('',(-6.12323399573677E-17,-1.,0.));
#455=DIRECTION('',(0.,0.,-1.));
#456=DIRECTION('center_axis',(0.,-1.,0.));
#457=DIRECTION('ref_axis',(1.,0.,0.));
#458=DIRECTION('',(-1.,0.,0.));
#459=DIRECTION('',(0.,0.,1.));
#460=DIRECTION('',(1.,0.,0.));
#461=DIRECTION('',(0.,0.,1.));
#462=DIRECTION('',(-1.,0.,0.));
#463=DIRECTION('',(-1.,6.12323399573677E-17,0.));
#464=DIRECTION('center_axis',(0.,0.,1.));
#465=DIRECTION('ref_axis',(1.,0.,0.));
#466=DIRECTION('',(1.,-2.80859991348626E-16,0.));
#467=DIRECTION('',(8.30481790073936E-17,-1.,0.));
#468=DIRECTION('',(-1.,0.,0.));
#469=DIRECTION('',(0.,1.,0.));
#470=DIRECTION('',(1.,-2.80859991348626E-16,0.));
#471=DIRECTION('center_axis',(0.,0.,1.));
#472=DIRECTION('ref_axis',(1.,0.,0.));
#473=DIRECTION('',(0.,1.,0.));
#474=DIRECTION('',(-1.,0.,0.));
#475=DIRECTION('',(8.30481790073936E-17,-1.,0.));
#476=DIRECTION('',(1.,-2.80859991348626E-16,0.));
#477=DIRECTION('center_axis',(-2.80859991348626E-16,-1.,0.));
#478=DIRECTION('ref_axis',(1.,-2.80859991348626E-16,0.));
#479=DIRECTION('',(0.,0.,1.));
#480=DIRECTION('center_axis',(-2.80859991348626E-16,-1.,0.));
#481=DIRECTION('ref_axis',(1.,-2.80859991348626E-16,0.));
#482=DIRECTION('',(0.,0.,1.));
#483=DIRECTION('',(1.,-2.80859991348626E-16,0.));
#484=DIRECTION('center_axis',(0.,1.,0.));
#485=DIRECTION('ref_axis',(-1.,0.,0.));
#486=DIRECTION('',(0.,0.,1.));
#487=DIRECTION('',(-1.,0.,0.));
#488=DIRECTION('',(0.,0.,1.));
#489=DIRECTION('',(0.,0.,1.));
#490=DIRECTION('',(0.,0.,1.));
#491=DIRECTION('',(-1.,0.,-3.127388801761E-17));
#492=DIRECTION('',(0.,0.,-1.));
#493=DIRECTION('',(1.,0.,0.));
#494=DIRECTION('',(0.,0.,1.));
#495=DIRECTION('',(-1.,0.,-3.127388801761E-17));
#496=DIRECTION('center_axis',(-1.,0.,0.));
#497=DIRECTION('ref_axis',(0.,0.,1.));
#498=DIRECTION('',(0.,1.,0.));
#499=DIRECTION('',(0.,0.,1.));
#500=DIRECTION('',(0.,1.,0.));
#501=DIRECTION('center_axis',(0.,0.,-1.));
#502=DIRECTION('ref_axis',(-1.,0.,0.));
#503=DIRECTION('',(-1.,0.,0.));
#504=DIRECTION('',(0.,1.,0.));
#505=DIRECTION('center_axis',(1.,0.,0.));
#506=DIRECTION('ref_axis',(0.,0.,-1.));
#507=DIRECTION('',(0.,0.,-1.));
#508=DIRECTION('',(0.,1.,0.));
#509=DIRECTION('center_axis',(0.,1.,0.));
#510=DIRECTION('ref_axis',(0.,0.,1.));
#511=DIRECTION('',(1.,0.,3.127388801761E-17));
#512=DIRECTION('center_axis',(0.,-1.,0.));
#513=DIRECTION('ref_axis',(-1.,0.,0.));
#514=DIRECTION('center_axis',(0.,1.,0.));
#515=DIRECTION('ref_axis',(-1.,0.,0.));
#516=DIRECTION('',(0.,1.,0.));
#517=DIRECTION('center_axis',(0.,-1.,0.));
#518=DIRECTION('ref_axis',(-1.,0.,0.));
#519=DIRECTION('',(0.,-1.,0.));
#520=DIRECTION('center_axis',(0.,1.,0.));
#521=DIRECTION('ref_axis',(-1.,0.,0.));
#522=DIRECTION('',(1.,0.,0.));
#523=DIRECTION('center_axis',(0.,1.,0.));
#524=DIRECTION('ref_axis',(-1.,0.,0.));
#525=DIRECTION('',(-1.,0.,0.));
#526=DIRECTION('center_axis',(-1.,0.,0.));
#527=DIRECTION('ref_axis',(0.,-1.,0.));
#528=DIRECTION('',(0.,-1.,0.));
#529=DIRECTION('center_axis',(1.,0.,0.));
#530=DIRECTION('ref_axis',(0.,1.,0.));
#531=DIRECTION('',(0.,-1.,0.));
#532=DIRECTION('',(0.,1.,0.));
#533=DIRECTION('center_axis',(0.,0.,1.));
#534=DIRECTION('ref_axis',(1.,0.,0.));
#535=DIRECTION('center_axis',(1.,0.,0.));
#536=DIRECTION('ref_axis',(0.,1.,0.));
#537=DIRECTION('',(0.,1.,0.));
#538=DIRECTION('center_axis',(-1.,-8.30481790073936E-17,0.));
#539=DIRECTION('ref_axis',(8.30481790073936E-17,-1.,0.));
#540=DIRECTION('center_axis',(0.,0.,1.));
#541=DIRECTION('ref_axis',(1.,0.,0.));
#542=CARTESIAN_POINT('',(0.,0.,0.));
#543=CARTESIAN_POINT('Origin',(42.5,4.99999999999999,20.));
#544=CARTESIAN_POINT('',(42.5,5.,18.5));
#545=CARTESIAN_POINT('',(42.5,4.49999999999999,18.5));
#546=CARTESIAN_POINT('',(42.5,20.625,18.5));
#547=CARTESIAN_POINT('',(42.5,4.99999999999999,17.));
#548=CARTESIAN_POINT('',(42.5,4.99999999999999,20.));
#549=CARTESIAN_POINT('',(42.5,4.49999999999999,17.));
#550=CARTESIAN_POINT('',(42.5,20.625,17.));
#551=CARTESIAN_POINT('',(42.5,4.49999999999999,18.5));
#552=CARTESIAN_POINT('Origin',(37.5,0.499999999999998,20.));
#553=CARTESIAN_POINT('',(37.5,4.49999999999999,18.5));
#554=CARTESIAN_POINT('',(37.5,4.99999999999999,18.5));
#555=CARTESIAN_POINT('',(37.5,18.375,18.5));
#556=CARTESIAN_POINT('',(37.5,4.49999999999999,17.));
#557=CARTESIAN_POINT('',(37.5,4.49999999999999,18.5));
#558=CARTESIAN_POINT('',(37.5,4.99999999999999,17.));
#559=CARTESIAN_POINT('',(37.5,18.375,17.));
#560=CARTESIAN_POINT('',(37.5,4.99999999999999,20.));
#561=CARTESIAN_POINT('Origin',(0.0999999999999979,5.,18.5));
#562=CARTESIAN_POINT('',(64.9,5.,18.5));
#563=CARTESIAN_POINT('',(16.3,5.,18.5));
#564=CARTESIAN_POINT('',(64.9,5.,20.));
#565=CARTESIAN_POINT('',(64.9,5.,18.5));
#566=CARTESIAN_POINT('',(0.0999999999999979,5.,20.));
#567=CARTESIAN_POINT('',(0.0999999999999979,5.,20.));
#568=CARTESIAN_POINT('',(0.0999999999999979,5.,18.5));
#569=CARTESIAN_POINT('',(0.0999999999999979,5.,18.5));
#570=CARTESIAN_POINT('',(16.3,5.,18.5));
#571=CARTESIAN_POINT('',(35.,4.99999999999999,17.));
#572=CARTESIAN_POINT('Origin',(32.5,36.25,17.));
#573=CARTESIAN_POINT('',(-1.09999999999999,4.5,17.));
#574=CARTESIAN_POINT('',(-1.09999999999999,4.5,17.));
#575=CARTESIAN_POINT('',(-1.1,68.,17.));
#576=CARTESIAN_POINT('',(-1.1,68.,17.));
#577=CARTESIAN_POINT('',(66.1,68.,17.));
#578=CARTESIAN_POINT('',(66.1,68.,17.));
#579=CARTESIAN_POINT('',(66.1,4.49999999999998,17.));
#580=CARTESIAN_POINT('',(66.1,4.49999999999998,17.));
#581=CARTESIAN_POINT('',(-1.09999999999999,4.5,17.));
#582=CARTESIAN_POINT('Origin',(32.5,36.25,18.5));
#583=CARTESIAN_POINT('',(0.0999999999999979,68.,18.5));
#584=CARTESIAN_POINT('',(0.0999999999999979,52.125,18.5));
#585=CARTESIAN_POINT('',(-1.1,68.,18.5));
#586=CARTESIAN_POINT('',(66.1,68.,18.5));
#587=CARTESIAN_POINT('',(-1.09999999999999,4.5,18.5));
#588=CARTESIAN_POINT('',(-1.1,68.,18.5));
#589=CARTESIAN_POINT('',(-1.09999999999999,4.5,18.5));
#590=CARTESIAN_POINT('Origin',(-1.09999999999999,4.5,17.));
#591=CARTESIAN_POINT('',(-1.09999999999999,4.5,17.));
#592=CARTESIAN_POINT('Origin',(-1.09999999999999,4.5,17.));
#593=CARTESIAN_POINT('',(66.1,4.49999999999998,18.5));
#594=CARTESIAN_POINT('',(66.1,4.49999999999998,17.));
#595=CARTESIAN_POINT('',(-1.09999999999999,4.5,18.5));
#596=CARTESIAN_POINT('Origin',(32.5,68.,8.5));
#597=CARTESIAN_POINT('',(64.9,68.,18.5));
#598=CARTESIAN_POINT('',(64.9,68.,20.));
#599=CARTESIAN_POINT('',(64.9,68.,18.5));
#600=CARTESIAN_POINT('',(66.1,68.,18.5));
#601=CARTESIAN_POINT('',(66.1,68.,18.5));
#602=CARTESIAN_POINT('',(66.1,68.,17.));
#603=CARTESIAN_POINT('',(-1.1,68.,17.));
#604=CARTESIAN_POINT('',(0.0999999999999979,68.,20.));
#605=CARTESIAN_POINT('',(0.0999999999999979,68.,18.5));
#606=CARTESIAN_POINT('',(-3.,68.,20.));
#607=CARTESIAN_POINT('',(68.,68.,20.));
#608=CARTESIAN_POINT('',(-3.,68.,-3.));
#609=CARTESIAN_POINT('',(-3.,68.,20.));
#610=CARTESIAN_POINT('',(68.,68.,-3.));
#611=CARTESIAN_POINT('',(-3.,68.,-3.));
#612=CARTESIAN_POINT('',(68.,68.,20.));
#613=CARTESIAN_POINT('',(68.,68.,-3.));
#614=CARTESIAN_POINT('',(68.,68.,20.));
#615=CARTESIAN_POINT('Origin',(-3.,68.,-3.));
#616=CARTESIAN_POINT('',(-3.,69.,20.));
#617=CARTESIAN_POINT('',(-3.,68.,20.));
#618=CARTESIAN_POINT('',(-3.,69.,-3.));
#619=CARTESIAN_POINT('',(-3.,69.,20.));
#620=CARTESIAN_POINT('',(-3.,68.,-3.));
#621=CARTESIAN_POINT('Origin',(68.,68.,-3.));
#622=CARTESIAN_POINT('',(68.,69.,-3.));
#623=CARTESIAN_POINT('',(-3.,69.,-3.));
#624=CARTESIAN_POINT('',(68.,68.,-3.));
#625=CARTESIAN_POINT('Origin',(68.,68.,20.));
#626=CARTESIAN_POINT('',(68.,69.,20.));
#627=CARTESIAN_POINT('',(68.,69.,-3.));
#628=CARTESIAN_POINT('',(68.,68.,20.));
#629=CARTESIAN_POINT('Origin',(32.5,69.,8.5));
#630=CARTESIAN_POINT('',(68.,69.,20.));
#631=CARTESIAN_POINT('Origin',(32.5,58.,37.));
#632=CARTESIAN_POINT('',(39.7972597596632,58.,20.));
#633=CARTESIAN_POINT('',(25.2027402403368,58.,20.));
#634=CARTESIAN_POINT('Origin',(32.5,58.,37.));
#635=CARTESIAN_POINT('',(25.2027402403368,48.,20.));
#636=CARTESIAN_POINT('',(25.2027402403368,58.,20.));
#637=CARTESIAN_POINT('',(39.7972597596632,48.,20.));
#638=CARTESIAN_POINT('Origin',(32.5,48.,37.));
#639=CARTESIAN_POINT('',(39.7972597596632,58.,20.));
#640=CARTESIAN_POINT('Origin',(32.5,58.,19.25));
#641=CARTESIAN_POINT('',(32.5,58.,20.));
#642=CARTESIAN_POINT('Origin',(32.5,48.,19.25));
#643=CARTESIAN_POINT('',(32.5,48.,20.));
#644=CARTESIAN_POINT('Origin',(0.0999999999999979,68.,18.5));
#645=CARTESIAN_POINT('',(0.0999999999999979,5.,20.));
#646=CARTESIAN_POINT('Origin',(64.9,5.,18.5));
#647=CARTESIAN_POINT('',(64.9,20.625,18.5));
#648=CARTESIAN_POINT('',(64.9,5.,20.));
#649=CARTESIAN_POINT('Origin',(32.5,36.5,20.));
#650=CARTESIAN_POINT('Origin',(66.1,4.49999999999998,17.));
#651=CARTESIAN_POINT('',(66.1,4.49999999999998,18.5));
#652=CARTESIAN_POINT('Origin',(-1.1,68.,17.));
#653=CARTESIAN_POINT('Origin',(32.5,36.25,18.5));
#654=UNCERTAINTY_MEASURE_WITH_UNIT(LENGTH_MEASURE(0.01),#658,
'DISTANCE_ACCURACY_VALUE',
'Maximum model space distance between geometric entities at asserted c
onnectivities');
#655=UNCERTAINTY_MEASURE_WITH_UNIT(LENGTH_MEASURE(0.01),#658,
'DISTANCE_ACCURACY_VALUE',
'Maximum model space distance between geometric entities at asserted c
onnectivities');
#656=(
GEOMETRIC_REPRESENTATION_CONTEXT(3)
GLOBAL_UNCERTAINTY_ASSIGNED_CONTEXT((#654))
GLOBAL_UNIT_ASSIGNED_CONTEXT((#658,#660,#661))
REPRESENTATION_CONTEXT('','3D')
);
#657=(
GEOMETRIC_REPRESENTATION_CONTEXT(3)
GLOBAL_UNCERTAINTY_ASSIGNED_CONTEXT((#655))
GLOBAL_UNIT_ASSIGNED_CONTEXT((#658,#660,#661))
REPRESENTATION_CONTEXT('','3D')
);
#658=(
LENGTH_UNIT()
NAMED_UNIT(*)
SI_UNIT(.MILLI.,.METRE.)
);
#659=(
LENGTH_UNIT()
NAMED_UNIT(*)
SI_UNIT($,.METRE.)
);
#660=(
NAMED_UNIT(*)
PLANE_ANGLE_UNIT()
SI_UNIT($,.RADIAN.)
);
#661=(
NAMED_UNIT(*)
SI_UNIT($,.STERADIAN.)
SOLID_ANGLE_UNIT()
);
#662=SHAPE_DEFINITION_REPRESENTATION(#663,#664);
#663=PRODUCT_DEFINITION_SHAPE('',$,#666);
#664=SHAPE_REPRESENTATION('',(#418),#656);
#665=PRODUCT_DEFINITION_CONTEXT('part definition',#670,'design');
#666=PRODUCT_DEFINITION('Fusion \X2\30B330F330DD30FC30CD30F330C8\X0\',
'Fusion \X2\30B330F330DD30FC30CD30F330C8\X0\',#667,#665);
#667=PRODUCT_DEFINITION_FORMATION('',$,#672);
#668=PRODUCT_RELATED_PRODUCT_CATEGORY('Fusion \X2\30B330F330DD30FC30CD30F330C8\X0\',
'Fusion \X2\30B330F330DD30FC30CD30F330C8\X0\',(#672));
#669=APPLICATION_PROTOCOL_DEFINITION('international standard',
'automotive_design',2009,#670);
#670=APPLICATION_CONTEXT(
'Core Data for Automotive Mechanical Design Process');
#671=PRODUCT_CONTEXT('part definition',#670,'mechanical');
#672=PRODUCT('Fusion \X2\30B330F330DD30FC30CD30F330C8\X0\',
'Fusion \X2\30B330F330DD30FC30CD30F330C8\X0\',$,(#671));
#673=PRESENTATION_STYLE_ASSIGNMENT((#674));
#674=SURFACE_STYLE_USAGE(.BOTH.,#675);
#675=SURFACE_SIDE_STYLE('',(#676));
#676=SURFACE_STYLE_FILL_AREA(#677);
#677=FILL_AREA_STYLE('\X2\92FC\X0\ - \X2\30B530C630F3\X0\',(#678));
#678=FILL_AREA_STYLE_COLOUR('\X2\92FC\X0\ - \X2\30B530C630F3\X0\',#679);
#679=COLOUR_RGB('\X2\92FC\X0\ - \X2\30B530C630F3\X0\',0.627450980392157,
0.627450980392157,0.627450980392157);
ENDSEC;
END-ISO-10303-21;
